<svg xmlns="http://www.w3.org/2000/svg" viewBox="0 0 80.49 80.48"><defs><style>.cls-1{fill:#60edc0;}.cls-2{fill:#fff;}</style></defs><title>1Asset 1</title><g id="Layer_2" data-name="Layer 2"><g id="Layer_1-2" data-name="Layer 1"><path class="cls-1" d="M80.49,40.24A40.24,40.24,0,1,1,40.24,0,40.24,40.24,0,0,1,80.49,40.24"/><path class="cls-2" d="M51.7,19.15c0-1.86-1-10.24-1-10.24l-.63,0-.36,6.59c-5.79-.27-8.35.95-9.48,2.08-1.14-1.14-3.69-2.35-9.48-2.08L30.4,8.88l-.63,0s-.95,8.39-1,10.24,4,9.06,6.13,14.34H45.58S51.74,21,51.7,19.15"/><path class="cls-2" d="M46.1,35.55H34.39s-15.78,25.58-15,33.51H61.13c.75-7.93-15-33.51-15-33.51"/></g></g></svg>