<svg xmlns="http://www.w3.org/2000/svg" viewBox="0 0 81.49 81.49"><defs><style>.cls-1{fill:#60edc0;}.cls-2{fill:#fff;}</style></defs><title>3Asset 3</title><g id="Layer_2" data-name="Layer 2"><g id="Layer_1-2" data-name="Layer 1"><path class="cls-1" d="M81.49,40.75A40.75,40.75,0,1,1,40.75,0,40.75,40.75,0,0,1,81.49,40.75"/><path class="cls-2" d="M27.89,45.64a2.13,2.13,0,0,1-2-2.73l3.21-10.84a2.12,2.12,0,0,1,.61-1l7.43-6.71a2.12,2.12,0,0,1,2.85,3.15l-7,6.31-3,10.26a2.12,2.12,0,0,1-2,1.52"/><path class="cls-2" d="M39,48.59h-.09a3.9,3.9,0,0,1-3.81-4l.41-17.49a3.9,3.9,0,0,1,7.8.18l-.41,17.49A3.9,3.9,0,0,1,39,48.59"/><path class="cls-2" d="M50,67.27a2.13,2.13,0,0,1-2.08-1.68l-2.12-10-6.71-8.7a2.13,2.13,0,0,1,3.36-2.6l7,9.08a2.12,2.12,0,0,1,.4.86l2.22,10.43A2.13,2.13,0,0,1,50,67.27"/><path class="cls-2" d="M40.74,44a1.65,1.65,0,0,0-1.3,2.66l6.78,8.78,2.14,10.06a1.65,1.65,0,0,0,2,1.27,1.65,1.65,0,0,0,1.27-2L49.37,54.37a1.67,1.67,0,0,0-.31-.67l-7-9.08A1.64,1.64,0,0,0,41,44h-.21M50,67.75a2.61,2.61,0,0,1-2.54-2.06l-2.1-9.85-6.65-8.61a2.6,2.6,0,0,1,4.11-3.17l7,9.08a2.61,2.61,0,0,1,.48,1l2.22,10.43a2.6,2.6,0,0,1-2,3.08,2.61,2.61,0,0,1-.54.06"/><path class="cls-2" d="M28.68,67.27a2.12,2.12,0,0,1-1.47-3.66l7.56-7.26.91-13a2.12,2.12,0,1,1,4.24.3L39,57.47a2.12,2.12,0,0,1-.65,1.39l-8.15,7.82a2.12,2.12,0,0,1-1.47.59"/><path class="cls-2" d="M37.81,41.86a1.66,1.66,0,0,0-1.65,1.54l-.92,13.18L27.54,64a1.65,1.65,0,0,0,2.29,2.38L38,58.52a1.64,1.64,0,0,0,.5-1.08l1-13.81a1.65,1.65,0,0,0-1.53-1.76h-.11M28.68,67.75a2.6,2.6,0,0,1-1.8-4.47l7.43-7.13.9-12.81a2.6,2.6,0,0,1,5.18.36l-1,13.81a2.59,2.59,0,0,1-.79,1.69L30.48,67a2.59,2.59,0,0,1-1.8.72"/><path class="cls-2" d="M54.17,39.13l-.34,0-8-1.29a2.12,2.12,0,0,1-1.53-1.09L39.4,27.65a2.12,2.12,0,0,1,3.74-2l4.38,8.14,7,1.13a2.13,2.13,0,0,1-.34,4.22"/><path class="cls-2" d="M35.55,17.11a5.19,5.19,0,1,0,5.19-5.19,5.19,5.19,0,0,0-5.19,5.19"/></g></g></svg>