<svg xmlns="http://www.w3.org/2000/svg" viewBox="0 0 82.81 82.81"><defs><style>.cls-1{fill:#09c3f1;}.cls-2{fill:#fff;}</style></defs><title>2Asset 2</title><g id="Layer_2" data-name="Layer 2"><g id="Layer_1-2" data-name="Layer 1"><path class="cls-1" d="M41.41,82.81A41.41,41.41,0,1,0,0,41.41,41.4,41.4,0,0,0,41.41,82.81"/><path class="cls-2" d="M60.29,38.55c-1.38-1.31-3.28-1.62-5-1.9l-.78-.14-.67-.16c-2.24-.52-3.82-1-3.83-2.86A10.37,10.37,0,0,1,50.86,30a11.26,11.26,0,0,0,.9-4.39,8.72,8.72,0,0,0-3.31-6.78,4.48,4.48,0,0,0-2.73-1A2.92,2.92,0,0,0,42.79,20a7.09,7.09,0,0,0-.2,2.74c0,.23,0,.47,0,.71a8.4,8.4,0,0,1-.48,3.37,18.69,18.69,0,0,1-3.33,5.31l-.64.81a25.55,25.55,0,0,1-2.87,3.24,3.94,3.94,0,0,1-1.77.71L30.32,37a8.25,8.25,0,0,0-2.43,6.1v5.65c0,4.87,2.27,6.17,2.27,6.17s.55,0,1.09,0,.92-.06,1.34-.06h.2A11.36,11.36,0,0,0,34,55c.37,0,.75.08,1.15.16a3.27,3.27,0,0,1,1.37,1,6.93,6.93,0,0,0,.77.66l.76.55a14.54,14.54,0,0,0,2.51,1.57,13.31,13.31,0,0,0,3.6.8c.59.08,1.17.15,1.73.26l1,.12a27.15,27.15,0,0,0,2.91.22,9.41,9.41,0,0,0,1.79-.16,4.13,4.13,0,0,0,3.17-3.92,4.89,4.89,0,0,0,2.42-2.27,4.31,4.31,0,0,0,.48-2.83,5.21,5.21,0,0,0,2.32-5.49,3.94,3.94,0,0,0,1.59-2.67,5.07,5.07,0,0,0-1.25-4.34M59,42.14a1.43,1.43,0,0,1-1.16,1.38,1.3,1.3,0,0,0-.9.77,1.7,1.7,0,0,0,.18,1.48,2.13,2.13,0,0,1,.17,1.77,2.48,2.48,0,0,1-1.7,1.63,1.17,1.17,0,0,0-.89.7,1.18,1.18,0,0,0,.12,1.28A2,2,0,0,1,54.71,53a1.32,1.32,0,0,1-1,.83.44.44,0,0,1-.16,0h-.12a1.66,1.66,0,0,0-1.36.66,1.05,1.05,0,0,0-.08,1,1.73,1.73,0,0,1-.07,1.44,1,1,0,0,1-.79.48,7.12,7.12,0,0,1-1.87.17c-1.82-.16-3.75-.33-5.61-.67l-.88-.2c-.46-.1-.92-.2-1.32-.3a14.78,14.78,0,0,1-2.14-1.44c-.24-.18-.47-.36-.7-.53s-.35-.31-.54-.48a4.29,4.29,0,0,0-1.66-1.12,3.27,3.27,0,0,0-1.82-.39c-1.74-.15-2.56-.78-3-2.31a17.94,17.94,0,0,1-.41-4.79V45a9.73,9.73,0,0,1,.77-4.51c.36-.62,1.09-.75,1.94-.91a6.17,6.17,0,0,0,2.93-1.23.65.65,0,0,0,.34-.3,4.52,4.52,0,0,0,.89-.9,43.78,43.78,0,0,0,3.64-4.49c.23-.34.46-.67.69-1a15,15,0,0,0,2.62-5,14.14,14.14,0,0,0,.23-4.1v-.22c-.05-.89-.07-1.84.43-1.91h.12c.81,0,1.83,1,2.44,2a7.47,7.47,0,0,1,.93,3.61,11.9,11.9,0,0,1-.83,3.49,11.12,11.12,0,0,0-.87,4.44,5.44,5.44,0,0,0,4.26,4.63c.69.18,1.43.3,2.14.41A11.77,11.77,0,0,1,57.65,40,2.21,2.21,0,0,1,59,42.14"/><path class="cls-2" d="M27.45,36.54l-7.6-.23a8.26,8.26,0,0,0-3.27,6.54v6.07c0,5.23,3.11,6.4,3.11,6.4l7.6.23s-2.71-1.39-2.71-6.63V42.85a7.81,7.81,0,0,1,2.87-6.31"/></g></g></svg>