<svg id="Layer_1" data-name="Layer 1" xmlns="http://www.w3.org/2000/svg" xmlns:xlink="http://www.w3.org/1999/xlink" viewBox="0 0 558.36 47.77"><defs><style>.cls-1{fill:url(#linear-gradient);}.cls-2{fill:url(#linear-gradient-2);}.cls-3{fill:url(#linear-gradient-3);}.cls-4{fill:url(#linear-gradient-4);}.cls-5{fill:url(#linear-gradient-8);}.cls-6{fill:url(#linear-gradient-9);}.cls-7{fill:url(#linear-gradient-10);}.cls-8{fill:url(#linear-gradient-12);}.cls-9{fill:url(#linear-gradient-13);}.cls-10{fill:url(#linear-gradient-14);}</style><linearGradient id="linear-gradient" x1="3.26" y1="13.74" x2="561.66" y2="13.74" gradientTransform="matrix(1, 0, 0, -1, 0, 46)" gradientUnits="userSpaceOnUse"><stop offset="0" stop-color="#014169"/><stop offset="0.17" stop-color="#034b74"/><stop offset="0.35" stop-color="#05517c"/><stop offset="0.37" stop-color="#0a5482"/><stop offset="0.51" stop-color="#306bac"/><stop offset="0.54" stop-color="#2c68a7"/><stop offset="0.65" stop-color="#2a67a5"/><stop offset="0.66" stop-color="#2868a5"/><stop offset="0.82" stop-color="#0b76ac"/><stop offset="0.92" stop-color="#007baf"/></linearGradient><linearGradient id="linear-gradient-2" x1="3.26" y1="13.79" x2="561.66" y2="13.79" xlink:href="#linear-gradient"/><linearGradient id="linear-gradient-3" x1="3.26" y1="13.75" x2="561.66" y2="13.75" xlink:href="#linear-gradient"/><linearGradient id="linear-gradient-4" x1="3.26" y1="13.75" x2="561.66" y2="13.75" xlink:href="#linear-gradient"/><linearGradient id="linear-gradient-8" x1="3.26" y1="13.76" x2="561.66" y2="13.76" xlink:href="#linear-gradient"/><linearGradient id="linear-gradient-9" x1="3.26" y1="8.56" x2="561.66" y2="8.56" xlink:href="#linear-gradient"/><linearGradient id="linear-gradient-10" x1="3.26" y1="15.37" x2="561.66" y2="15.37" xlink:href="#linear-gradient"/><linearGradient id="linear-gradient-12" x1="3.26" y1="8.91" x2="561.66" y2="8.91" xlink:href="#linear-gradient"/><linearGradient id="linear-gradient-13" x1="3.26" y1="15.69" x2="561.66" y2="15.69" xlink:href="#linear-gradient"/><linearGradient id="linear-gradient-14" x1="3.26" y1="8.54" x2="561.66" y2="8.54" xlink:href="#linear-gradient"/></defs><g id="Layer_1-2" data-name="Layer 1"><path class="cls-1" d="M3.26,53.8V10.7H35.57V18H12.3V28.68H30.68v6.9H12.3v11H36.57v7.26Z" transform="translate(-3.26 -6.76)"/><path class="cls-2" d="M91.64,10.63v43.1h-8.1V31.32l.4-12.62h-.09L71.78,53.8H64.44L52.52,18.68H52.4l.41,12.62V53.72H44.68V10.61H57.76l7.8,23.55,2.77,9.76h.12l2.83-9.67L79,10.63Z" transform="translate(-3.26 -6.76)"/><path class="cls-3" d="M118.22,10A19.65,19.65,0,0,1,128,12.3a18.92,18.92,0,0,1,6.89,6.9l-4.38,3.45a15.37,15.37,0,0,0-5.46-5.94A14.59,14.59,0,0,0,117.73,15,14.35,14.35,0,0,0,112,16a7.19,7.19,0,0,0-3.35,2.5,6.48,6.48,0,0,0-1,3.62,6,6,0,0,0,1.45,4,10.48,10.48,0,0,0,5.83,2.71l9.34,2.08a16.06,16.06,0,0,1,8.62,4.16A10,10,0,0,1,135.3,42a10.89,10.89,0,0,1-2.05,6.5,13.41,13.41,0,0,1-5.81,4.5,22.62,22.62,0,0,1-8.76,1.57,24.3,24.3,0,0,1-8.28-1.28,19.11,19.11,0,0,1-6.12-3.45A19.6,19.6,0,0,1,100.09,45l4.59-3.73a16.21,16.21,0,0,0,3.19,4.38,13.37,13.37,0,0,0,4.76,3,17.66,17.66,0,0,0,6.36,1,18,18,0,0,0,5.79-.83,7.7,7.7,0,0,0,3.76-2.41,5.87,5.87,0,0,0,1.31-3.9,5.66,5.66,0,0,0-1.36-3.75,9.1,9.1,0,0,0-5.17-2.52l-10.16-2.35a19.78,19.78,0,0,1-6.45-2.51,9.7,9.7,0,0,1-3.53-3.8,10.51,10.51,0,0,1-1.07-4.74A11.33,11.33,0,0,1,104,16.42a13.54,13.54,0,0,1,5.58-4.67A19.38,19.38,0,0,1,118.22,10Z" transform="translate(-3.26 -6.76)"/><path class="cls-4" d="M146.29,53.8V10.7h30.27v4.84H151.51V29.47H171v4.9h-19.5V48.91h26V53.8Z" transform="translate(-3.26 -6.76)"/><path class="cls-4" d="M193.25,48.91H218V53.8H188V10.7h5.18Z" transform="translate(-3.26 -6.76)"/><path class="cls-4" d="M232.38,48.91H257.1V53.8h-30V10.7h5.17Z" transform="translate(-3.26 -6.76)"/><path class="cls-4" d="M300.68,53.8h-5.56l-4.58-12H271l-4.58,12h-5.5l16.81-43.1h6.15Zm-27.8-16.88h15.76l-7.91-21.26Z" transform="translate(-3.26 -6.76)"/><path class="cls-5" d="M364.66,41.91A16.61,16.61,0,0,1,354.32,53.1a23,23,0,0,1-8,1.36,22.15,22.15,0,0,1-11.1-2.68A18,18,0,0,1,328,44.13a26.24,26.24,0,0,1-2.45-11.86,26,26,0,0,1,2.52-11.9,17.85,17.85,0,0,1,7.19-7.66,21.62,21.62,0,0,1,11-2.69,25.66,25.66,0,0,1,8.06,1.21A15.5,15.5,0,0,1,360.39,15a15.31,15.31,0,0,1,3.69,6.24l-8.18,3.45a9.82,9.82,0,0,0-3.45-5.58,9.63,9.63,0,0,0-5.88-1.73,11.41,11.41,0,0,0-6.19,1.73,11,11,0,0,0-4.08,5,20.42,20.42,0,0,0-1.4,8.18,21.65,21.65,0,0,0,1.33,8.12,10.42,10.42,0,0,0,4,5,11.42,11.42,0,0,0,6.41,1.73,9.49,9.49,0,0,0,9.67-7.73Z" transform="translate(-3.26 -6.76)"/><path class="cls-6" d="M386.39,20.44a18,18,0,0,1,8.72,2A14.41,14.41,0,0,1,401,28.3a18.5,18.5,0,0,1,2.12,9.14A18.44,18.44,0,0,1,401,46.56a14.42,14.42,0,0,1-5.9,5.86,19.83,19.83,0,0,1-17.43,0,14.44,14.44,0,0,1-5.88-5.84,18.54,18.54,0,0,1-2.17-9.14,18.43,18.43,0,0,1,2.17-9.14,14.43,14.43,0,0,1,5.91-5.83A18.06,18.06,0,0,1,386.39,20.44Zm0,6.67a7.37,7.37,0,0,0-4.23,1.16,7.11,7.11,0,0,0-2.65,3.44,15.92,15.92,0,0,0-.92,5.76,15.89,15.89,0,0,0,.92,5.76,7.19,7.19,0,0,0,2.65,3.45,7.53,7.53,0,0,0,4.23,1.14,7.43,7.43,0,0,0,4.15-1.14,7.07,7.07,0,0,0,2.64-3.45,15.48,15.48,0,0,0,.93-5.76,15.31,15.31,0,0,0-.93-5.76,7,7,0,0,0-2.64-3.44,7.27,7.27,0,0,0-4.15-1.18Z" transform="translate(-3.26 -6.76)"/><path class="cls-7" d="M419.49,6.76v37a5,5,0,0,0,.78,3.21,3.31,3.31,0,0,0,2.62.91,8.64,8.64,0,0,0,1.83-.15c.48-.12,1.08-.28,1.83-.5l-.78,5.9a9.84,9.84,0,0,1-2.78,1,16.61,16.61,0,0,1-3.31.36,9.24,9.24,0,0,1-6.89-2.31,10.53,10.53,0,0,1-2.19-7.43V6.78Z" transform="translate(-3.26 -6.76)"/><path class="cls-6" d="M446.44,20.44a18,18,0,0,1,8.73,2,14.53,14.53,0,0,1,5.9,5.83,18.5,18.5,0,0,1,2.12,9.14,18.56,18.56,0,0,1-2.13,9.12,14.45,14.45,0,0,1-5.89,5.86,19.83,19.83,0,0,1-17.43,0,14.53,14.53,0,0,1-5.92-5.86,18.55,18.55,0,0,1-2.12-9.12,18.49,18.49,0,0,1,2.12-9.16,14.43,14.43,0,0,1,5.92-5.82A18,18,0,0,1,446.44,20.44Zm0,6.67a7.34,7.34,0,0,0-4.22,1.16,7,7,0,0,0-2.64,3.44,15.51,15.51,0,0,0-.93,5.76,15.48,15.48,0,0,0,.93,5.76,7.07,7.07,0,0,0,2.64,3.45,8.27,8.27,0,0,0,8.38,0,7.19,7.19,0,0,0,2.65-3.45,15.89,15.89,0,0,0,.92-5.76,15.92,15.92,0,0,0-.92-5.76,7.11,7.11,0,0,0-2.65-3.44,7.3,7.3,0,0,0-4.16-1.18Z" transform="translate(-3.26 -6.76)"/><path class="cls-8" d="M470.72,53.8V21h8l.54,9.81-1.12-1a13.5,13.5,0,0,1,2.48-5.28,10.71,10.71,0,0,1,4.16-3.1,14.47,14.47,0,0,1,11.45.26,9.77,9.77,0,0,1,4.19,4,13,13,0,0,1,1.53,6.64V53.8H493v-19a8.07,8.07,0,0,0-1.64-5.8,5.88,5.88,0,0,0-4.26-1.6,7.69,7.69,0,0,0-3.57.88,6.75,6.75,0,0,0-2.81,2.84,10.9,10.9,0,0,0-1.08,5.18V53.58Z" transform="translate(-3.26 -6.76)"/><path class="cls-9" d="M515.72,16.39a6.19,6.19,0,0,1-4.19-1.21,4.5,4.5,0,0,1-1.36-3.6A4.63,4.63,0,0,1,511.46,8a7.87,7.87,0,0,1,8.38,0,4.56,4.56,0,0,1,1.45,3.61,4.49,4.49,0,0,1-1.38,3.56A6.13,6.13,0,0,1,515.72,16.39Zm4.45,4.7V53.85h-9V21.09Z" transform="translate(-3.26 -6.76)"/><path class="cls-10" d="M548.31,32.94a5.48,5.48,0,0,0-5-5.94,5.75,5.75,0,0,0-.83,0,7.42,7.42,0,0,0-4.26,1.24,7.2,7.2,0,0,0-2.64,4.12L528,30a11.83,11.83,0,0,1,4.86-6.9,17.52,17.52,0,0,1,10.12-2.62,19.34,19.34,0,0,1,7.52,1.35,11,11,0,0,1,5,4,11.75,11.75,0,0,1,1.72,6.74V45.85c0,1.73.78,2.5,2.35,2.5a7.13,7.13,0,0,0,2.1-.32l-.53,5.55a9.25,9.25,0,0,1-4.24.84,10.34,10.34,0,0,1-4.12-.77,6.33,6.33,0,0,1-2.85-2.42,7.14,7.14,0,0,1-1-4v-.26l1.57-.26a7.36,7.36,0,0,1-2.16,4.21A11.37,11.37,0,0,1,544,53.54a15,15,0,0,1-5.17.92,14.54,14.54,0,0,1-5.76-1,7.9,7.9,0,0,1-3.73-3A8.51,8.51,0,0,1,528,45.63a8.05,8.05,0,0,1,2.35-6,12.86,12.86,0,0,1,6.74-3.18L549.4,34v5.55l-7.86,1.57a10.08,10.08,0,0,0-3.37,1.21A2.75,2.75,0,0,0,537,44.78a2.85,2.85,0,0,0,1.22,2.49,4.9,4.9,0,0,0,2.9.84,10.17,10.17,0,0,0,2.69-.33,7.31,7.31,0,0,0,2.36-1,4.78,4.78,0,0,0,1.62-2,6.91,6.91,0,0,0,.61-3Z" transform="translate(-3.26 -6.76)"/></g></svg>