<svg xmlns="http://www.w3.org/2000/svg" xmlns:xlink="http://www.w3.org/1999/xlink" viewBox="0 0 327.11 44.28"><defs><style>.cls-1{fill:url(#linear-gradient);}</style><linearGradient id="linear-gradient" x1="3.26" y1="18.04" x2="327.11" y2="18.04" gradientUnits="userSpaceOnUse"><stop offset="0" stop-color="#014169"/><stop offset="0.17" stop-color="#034b74"/><stop offset="0.35" stop-color="#05517c"/><stop offset="0.37" stop-color="#0a5482"/><stop offset="0.51" stop-color="#306bac"/><stop offset="0.54" stop-color="#2c68a7"/><stop offset="0.65" stop-color="#2a67a5"/><stop offset="0.66" stop-color="#2868a5"/><stop offset="0.82" stop-color="#0b76ac"/><stop offset="0.92" stop-color="#007baf"/></linearGradient></defs><g id="Layer_1" data-name="Layer 1"><path class="cls-1" d="M3.26,31.49v-25H22v4.21H8.5v6.22H19.16v4H8.5v6.37H22.58v4.21Z"/><path class="cls-1" d="M54.52,6.45v25h-4.7v-13l.23-7.32H50L43,31.49H38.74L31.83,11.12h-.07L32,18.44v13H27.28v-25h7.59l4.52,13.66L41,25.76h.07l1.64-5.61,4.47-13.7Z"/><path class="cls-1" d="M69.93,6.07a11.38,11.38,0,0,1,5.69,1.35,11,11,0,0,1,4,4l-2.54,2a8.91,8.91,0,0,0-3.17-3.44,8.44,8.44,0,0,0-4.26-1,8.32,8.32,0,0,0-3.32.57A4.15,4.15,0,0,0,64.39,11a3.7,3.7,0,0,0-.61,2.1,3.51,3.51,0,0,0,.84,2.33A6.09,6.09,0,0,0,68,17l5.42,1.21a9.3,9.3,0,0,1,5,2.41,5.84,5.84,0,0,1,1.42,4,6.31,6.31,0,0,1-1.19,3.77A7.78,7.78,0,0,1,75.28,31a13,13,0,0,1-5.08.91,14,14,0,0,1-4.8-.74,11.1,11.1,0,0,1-3.55-2,11.3,11.3,0,0,1-2.43-2.81l2.66-2.16a9.37,9.37,0,0,0,1.85,2.54,7.76,7.76,0,0,0,2.76,1.71,10.27,10.27,0,0,0,3.69.61,10.55,10.55,0,0,0,3.36-.48,4.52,4.52,0,0,0,2.18-1.4,3.43,3.43,0,0,0,.76-2.26,3.33,3.33,0,0,0-.79-2.18,5.31,5.31,0,0,0-3-1.46L67,19.92a11.44,11.44,0,0,1-3.74-1.46,5.62,5.62,0,0,1-2.05-2.2,6.1,6.1,0,0,1-.62-2.75,6.59,6.59,0,0,1,1.11-3.7A7.9,7.9,0,0,1,64.94,7.1,11.2,11.2,0,0,1,69.93,6.07Z"/><path class="cls-1" d="M86.21,31.49v-25h17.56V9.3H89.24v8.08h11.31v2.84H89.24v8.43h15.1v2.84Z"/><path class="cls-1" d="M113.45,28.65h14.34v2.84H110.41v-25h3Z"/><path class="cls-1" d="M136.14,28.65h14.34v2.84H133.1v-25h3Z"/><path class="cls-1" d="M175.75,31.49h-3.22l-2.66-6.94H158.53l-2.66,6.94h-3.19l9.75-25H166ZM159.63,21.7h9.14L164.18,9.37Z"/><path class="cls-1" d="M212.86,24.59a9.62,9.62,0,0,1-6,6.49,13.17,13.17,0,0,1-4.66.79,12.82,12.82,0,0,1-6.44-1.55,10.47,10.47,0,0,1-4.17-4.44A15.19,15.19,0,0,1,190.17,19a15.15,15.15,0,0,1,1.46-6.9,10.36,10.36,0,0,1,4.17-4.44,12.54,12.54,0,0,1,6.36-1.56,14.82,14.82,0,0,1,4.67.7,9,9,0,0,1,3.55,2.17,8.81,8.81,0,0,1,2.14,3.62l-4.74,2a5.75,5.75,0,0,0-2-3.24,5.6,5.6,0,0,0-3.41-1,6.57,6.57,0,0,0-3.59,1,6.41,6.41,0,0,0-2.37,2.91A11.77,11.77,0,0,0,195.6,19a12.63,12.63,0,0,0,.77,4.71,6.08,6.08,0,0,0,2.3,2.92,6.65,6.65,0,0,0,3.72,1A5.5,5.5,0,0,0,208,23.15Z"/><path class="cls-1" d="M225.46,12.14a10.42,10.42,0,0,1,5.06,1.18,8.37,8.37,0,0,1,3.42,3.38A10.69,10.69,0,0,1,235.17,22a10.74,10.74,0,0,1-1.23,5.29,8.42,8.42,0,0,1-3.42,3.4,11.51,11.51,0,0,1-10.11,0A8.38,8.38,0,0,1,217,27.3,10.75,10.75,0,0,1,215.74,22,10.69,10.69,0,0,1,217,16.7a8.33,8.33,0,0,1,3.43-3.38A10.49,10.49,0,0,1,225.46,12.14Zm0,3.87a4.3,4.3,0,0,0-2.45.67,4.14,4.14,0,0,0-1.54,2,9.13,9.13,0,0,0-.53,3.34,9.17,9.17,0,0,0,.53,3.34,4.19,4.19,0,0,0,1.54,2,4.37,4.37,0,0,0,2.45.66,4.31,4.31,0,0,0,2.41-.66,4.11,4.11,0,0,0,1.53-2,9,9,0,0,0,.54-3.34,8.91,8.91,0,0,0-.54-3.34,4.07,4.07,0,0,0-1.53-2A4.23,4.23,0,0,0,225.46,16Z"/><path class="cls-1" d="M244.66,4.21V25.65a2.91,2.91,0,0,0,.45,1.86,1.93,1.93,0,0,0,1.52.53,5.16,5.16,0,0,0,1.06-.09c.28-.07.63-.16,1.06-.29l-.45,3.42a5.59,5.59,0,0,1-1.61.58,9.1,9.1,0,0,1-1.92.21,5.36,5.36,0,0,1-4-1.34,6.13,6.13,0,0,1-1.27-4.31v-22Z"/><path class="cls-1" d="M260.29,12.14a10.42,10.42,0,0,1,5.06,1.18,8.37,8.37,0,0,1,3.42,3.38A10.69,10.69,0,0,1,270,22a10.74,10.74,0,0,1-1.23,5.29,8.42,8.42,0,0,1-3.42,3.4,11.51,11.51,0,0,1-10.11,0,8.44,8.44,0,0,1-3.43-3.4A10.74,10.74,0,0,1,250.58,22a10.69,10.69,0,0,1,1.23-5.31,8.39,8.39,0,0,1,3.43-3.38A10.49,10.49,0,0,1,260.29,12.14Zm0,3.87a4.3,4.3,0,0,0-2.45.67,4.07,4.07,0,0,0-1.53,2,8.91,8.91,0,0,0-.54,3.34,9,9,0,0,0,.54,3.34,4.11,4.11,0,0,0,1.53,2,4.37,4.37,0,0,0,2.45.66,4.31,4.31,0,0,0,2.41-.66,4.19,4.19,0,0,0,1.54-2,9.17,9.17,0,0,0,.53-3.34,9.13,9.13,0,0,0-.53-3.34,4.14,4.14,0,0,0-1.54-2A4.23,4.23,0,0,0,260.29,16Z"/><path class="cls-1" d="M274.37,31.49v-19H279l.31,5.69-.65-.6a7.77,7.77,0,0,1,1.44-3.06,6.2,6.2,0,0,1,2.41-1.8,8.41,8.41,0,0,1,6.64.15,5.61,5.61,0,0,1,2.43,2.3,7.49,7.49,0,0,1,.89,3.85V31.49h-5.19v-11a4.67,4.67,0,0,0-.95-3.36,3.4,3.4,0,0,0-2.47-.93,4.52,4.52,0,0,0-2.07.51,3.87,3.87,0,0,0-1.63,1.65,6.28,6.28,0,0,0-.63,3v10Z"/><path class="cls-1" d="M300.47,9.79a3.58,3.58,0,0,1-2.43-.7A2.62,2.62,0,0,1,297.25,7,2.67,2.67,0,0,1,298,4.91a4.57,4.57,0,0,1,4.86,0A2.67,2.67,0,0,1,303.7,7a2.62,2.62,0,0,1-.8,2.07A3.58,3.58,0,0,1,300.47,9.79Zm2.58,2.73v19h-5.2v-19Z"/><path class="cls-1" d="M319.37,19.39A3.18,3.18,0,0,0,316,15.94a4.3,4.3,0,0,0-2.47.72A4.15,4.15,0,0,0,312,19.05l-4.44-1.37a6.85,6.85,0,0,1,2.82-4,10.13,10.13,0,0,1,5.87-1.52,11.2,11.2,0,0,1,4.36.78,6.35,6.35,0,0,1,2.9,2.33,6.84,6.84,0,0,1,1,3.91v7.7c0,1,.45,1.45,1.36,1.45a4,4,0,0,0,1.22-.19l-.31,3.22a5.44,5.44,0,0,1-2.46.49,6,6,0,0,1-2.39-.45A3.67,3.67,0,0,1,320.28,30a4.16,4.16,0,0,1-.61-2.34v-.15l.91-.15a4.26,4.26,0,0,1-1.25,2.44,6.6,6.6,0,0,1-2.49,1.54,8.6,8.6,0,0,1-3,.53,8.45,8.45,0,0,1-3.34-.59,4.61,4.61,0,0,1-2.16-1.72,4.94,4.94,0,0,1-.76-2.81,4.66,4.66,0,0,1,1.36-3.47,7.46,7.46,0,0,1,3.91-1.84L320,20l0,3.22-4.56.91a5.78,5.78,0,0,0-1.95.7,1.59,1.59,0,0,0-.67,1.43,1.65,1.65,0,0,0,.71,1.44,2.82,2.82,0,0,0,1.68.49,6.23,6.23,0,0,0,1.56-.19,4.23,4.23,0,0,0,1.37-.6,2.78,2.78,0,0,0,.94-1.14,4,4,0,0,0,.35-1.75Z"/></g></svg>