<svg xmlns="http://www.w3.org/2000/svg" viewBox="0 0 80.83 80.26"><defs><style>.cls-1{fill:#09c3f1;}.cls-2{fill:#fff;}</style></defs><title>4Asset 4</title><g id="Layer_2" data-name="Layer 2"><g id="Layer_1-2" data-name="Layer 1"><path class="cls-1" d="M40.36,80.26A40.26,40.26,0,0,1,0,40.14,40.53,40.53,0,0,1,40.47,0C62.59,0,80.9,18.27,80.83,40.25a40.27,40.27,0,0,1-40.47,40"/><path class="cls-2" d="M39.79,53.07A23.66,23.66,0,0,0,36,60.42c-1.24,3.44-4,4.66-7.44,4-3.23-.61-6.09-2.06-6.25-5.79-.12-2.91-2-5.39-1-8.72a4.18,4.18,0,0,0-4.68-5c-2.31.18-2.72-.8-2.69-2.56.07-3.56-1.37-6.53-3.21-9.49C7.79,28.2,9,24.74,13.95,22.33c5.5-2.67,12.56-1.4,16.14,2.91,5.15,6.2,16.19,6.2,21.24,0,.85-.09,1.16.47,1.38,1.14.95,5.09,2.78,10.18.14,15.49C54.9,40,56.75,38,59.74,38.2c2.43.19,2.41-1.86,3.22-3.28,1-1.77,1.11-4.81,4.52-3.81.47,3.4-2.91,6-2,9.49-.17.26-.35.74-.53.73-6.66-.23-11.38,6.51-18.42,5.07-2.74-.56-3.77,1.2-3.36,3.61.67,3.91,3.17,7.07,5.1,10.38,1.29,2.21,6.14.95,7.43-1.65a14.4,14.4,0,0,0,1.11-6.37c.1-6.33,1.2-7.83,7.29-10.13a2.17,2.17,0,0,0,.95-1c.87-2.89.77-6.11,2.87-8.59.85-2.09,1.76-4.17,1.42-6.52.22-.65.55-1.15,1.36-.9,2.26,2.62,1.32,5.21-.18,7.69-1.21,2-2.52,3.88-2.92,6.27-.47,2.87.2,6.44-4.91,6.1-1.54-.1-3.62,2.77-3,4.68,1.06,3-.69,5.29-.83,7.89-.25,4.6-3.2,6.07-7,6.61-4,.57-6.33-1.4-7.65-5.19-.74-2.15-2.28-4-3.46-6-.89-2.48,0-5.09-.53-7.59.21-3.28,2.58-4,5.2-4.06,3.44-.08,4.54-2.29,5-5.09.5-3.22-.92-4.77-4.22-4.26a22.82,22.82,0,0,1-9.69-.12c-2.24-.61-4.74-1.41-5.53,2.09-.73,3.23.73,6.46,3.59,7.08,2.38.52,4.63.86,5.37,3.63.48,2.72,1,5.44-.17,8.13"/><path class="cls-2" d="M52.14,26.25l-.82-1a13,13,0,0,1,19.39,0l-.87.94a2.8,2.8,0,0,1-2.6-.44c-4.52-2.55-9-2.8-13.35.29a2.06,2.06,0,0,1-1.75.24"/><path class="cls-1" d="M39.79,53.07c-.06-2.8.52-5.66-.61-8.38a1.16,1.16,0,0,1,1.74.13q-.05,4.22-.11,8.45l-1-.19"/><path class="cls-1" d="M40.92,44.82l-1.74-.12c-1.11-.78-1.38-2.8-3.62-1.84-2.56,1.1-4.15-.62-5.1-2.73-1.31-2.93-1.67-6,.13-8.88,1.48-2.35,3.65-1,5.48-.43a19.68,19.68,0,0,0,10.57,0c3.82-1,5.09,1,5.21,4.35.15,4.39-2.4,8.57-5.21,7.86-2.64-.67-4,.56-5.71,1.84"/><path class="cls-1" d="M30.7,43.81c-2.5-.06-3.33-1.47-4.43-2.52-.77-.74-1.89-2.09-2.46-1.91-6.33,1.93-6.22-3.25-7.75-6.7-.28-.64-1-1.1-1.62-1.78-1.27,2.46,2.36,3.85.77,6.27-.74-1.22-1.41-2.36-2.11-3.48-1.46-2.35-3.57-4.75-1.37-7.55,2.52-3.2,6.22-3.84,10.07-3.5a9.48,9.48,0,0,1,7.92,4.93c.48.86.06,1.43-.32,2.09C26.57,34.46,27.48,39,30.7,43.81"/><path class="cls-1" d="M52.14,26.25c5.73-5,11.46-5,17.7-.09,1.13,2.4.42,4.47-1.13,6.4-1.58.5-.86-1.56-1.87-1.68C63.73,33.1,63.61,36.62,63,40.1c-2.23-.84-4.29-2-6.55-.31-1.8,1.32-2.82,3.76-6,4.08,3.26-4.92,4-9.77,1.1-14.69-.79-1.33.35-2,.56-2.92"/><path class="cls-1" d="M65.19,41.07c.39,1.44-.41,1.64-1.62,2.07-4.12,1.47-6,4.26-5.37,8.92C59,58,56.4,62.24,52.08,62.8c-2.73.35-5.08-.27-5.84-3.26-1-3.86-4.74-6.46-4.37-11,.26-3.27,1.77-4.45,4.39-3.53,4.37,1.53,7.49.28,10.26-3.08,1.19-1.44,2.85-2,4.51-.73,1.51,1.19,2.83.89,4.23,0Z"/><path class="cls-1" d="M34.59,59.7c-1.27,2.95-3.55,3.66-6.48,2.93C25.38,62,24,60.42,23.88,57.39c-.09-2.41-.88-4.72-.83-7.27.09-4.62-3.27-6.8-7.55-8.11,1.94-.31,3.71.18,5.32-1.11s2.95.06,4,1.25c2.53,3,5.32,4.45,9.38,2.88,2.53-1,4,.1,4,3.17a14.92,14.92,0,0,1-2.13,7.86c-1.55-1.74-1.92-4.27-3.93-5.71-.74-.53-1.4-1.42-2.41-.7a1.48,1.48,0,0,0-.17,2.11c1.58,2.44-1.05,4.61-.55,6.61.77,3.07,4.27-1.75,5.58,1.33"/><path class="cls-2" d="M34.59,59.7c-1.59-1.71-1.71.86-2.76,1-1.62.18-3.15.2-4.31-1s0-2.37.75-3.18c1.48-1.65,1-2.8-.22-4.37a2.75,2.75,0,0,1,.45-3.79c1.41-1.29,2.56-.35,3.72.43,2.6,1.75,4.26,4,3.85,7.33L34.59,59.7"/><path class="cls-1" d="M66.84,30.88l1.87,1.69c-2.05,2.47-2.06,5.79-3.53,8.5l.07,0C64,37.43,66.7,34.35,66.84,30.88"/><path class="cls-2" d="M51.26,60.78c-2.92,0-6.07-4-5.79-7.12a6.39,6.39,0,0,1,5.72-5.8c2.12-.33,3.28,1.9,2.05,3.9s-1.39,3.31.07,5.31c2.09,2.87-.65,3.16-2.06,3.71"/><path class="cls-1" d="M28.73,58.71c3-2.89,2.82-5.74.82-8.88,2.53.7,4.91,1.86,4.42,4.58-.37,2-1.17,5-5.24,4.3"/><path class="cls-1" d="M51.74,49.77c-1.47,2.75-2.76,5.12-.19,7.7.49.5.46,1.2-.33,1.35a2.1,2.1,0,0,1-1.67-.32c-1.28-1.35-2.49-2.89-2.32-4.85.22-2.51,2.4-3.13,4.51-3.89"/></g></g></svg>